<svg xmlns="http://www.w3.org/2000/svg" viewBox="0 0 100 80" fill="none">
  <defs>
    <linearGradient id="tg1" x1="0%" y1="0%" x2="100%" y2="100%">
      <stop offset="0%" stop-color="#1d7a64"/>
      <stop offset="50%" stop-color="#155e4f"/>
      <stop offset="100%" stop-color="#0d4035"/>
    </linearGradient>
    <linearGradient id="tg2" x1="0%" y1="0%" x2="100%" y2="100%">
      <stop offset="0%" stop-color="#1a6e5a"/>
      <stop offset="50%" stop-color="#124a3d"/>
      <stop offset="100%" stop-color="#0a3329"/>
    </linearGradient>
  </defs>
  <!-- Upper swoosh blade -->
  <path d="M 2,30 C 10,12 36,2 64,10 C 68,11 72,8 70,3 C 50,-3 18,6 4,22 C 2,25 1.5,28 2,30 Z" fill="url(#tg1)"/>
  <!-- Lower swoosh blade -->
  <path d="M 30,56 C 42,40 64,46 82,58 C 85,60 88,64 86,68 C 72,60 50,56 32,64 C 30.5,61 29.5,58 30,56 Z" fill="url(#tg2)"/>
</svg>
